<?xml version="1.0" encoding="UTF-8" standalone="no"?>
<!DOCTYPE svg PUBLIC "-//W3C//DTD SVG 1.1//EN" "http://www.w3.org/Graphics/SVG/1.1/DTD/svg11.dtd">
<svg width="100%" height="100%" viewBox="0 0 3315 2293" version="1.1" xmlns="http://www.w3.org/2000/svg" xmlns:xlink="http://www.w3.org/1999/xlink" xml:space="preserve" xmlns:serif="http://www.serif.com/" style="fill-rule:evenodd;clip-rule:evenodd;stroke-miterlimit:2;">
    <g transform="matrix(1,0,0,1,-255.65,-594.068)">
        <g transform="matrix(4.16667,0,0,4.16667,22.9548,-118.029)">
            <path d="M63.673,705.339L843.601,705.339" style="fill:none;stroke:rgb(113,112,131);stroke-width:7px;"/>
            <rect x="176.558" y="302.248" width="66.118" height="142.217" style="fill:rgb(24,34,78);fill-rule:nonzero;"/>
            <path d="M103.118,394.559L315.14,394.559L315.14,257.658C315.14,252.868 311.257,248.986 306.468,248.986L111.79,248.986C107,248.986 103.118,252.868 103.118,257.658L103.118,394.559Z" style="fill:rgb(116,114,130);fill-rule:nonzero;"/>
            <path d="M123.453,415.825L298.805,415.825C308.916,415.825 317.113,407.628 317.113,397.517L317.113,390.503L105.144,390.503L105.144,397.517C105.144,407.628 113.341,415.825 123.453,415.825Z" style="fill:rgb(116,114,130);fill-rule:nonzero;"/>
            <path d="M322.56,257.65L322.56,394.56L270.53,393.73L216.07,392.86L198.87,392.58L143.83,391.7L110.53,391.17L110.53,257.65C110.53,252.87 114.41,248.99 119.2,248.99L313.88,248.99C318.68,248.99 322.56,252.87 322.56,257.65Z" style="fill:rgb(44,45,58);fill-rule:nonzero;"/>
            <path d="M118.449,261.53L118.449,382.316C118.449,382.759 118.808,383.118 119.25,383.118L313.842,383.118C314.285,383.118 314.643,382.759 314.643,382.316L314.643,261.53C314.643,261.087 314.285,260.728 313.842,260.728L119.25,260.728C118.808,260.728 118.449,261.087 118.449,261.53Z" style="fill:white;fill-rule:nonzero;"/>
            <path d="M128.865,415.825L304.217,415.825C314.328,415.825 322.525,407.628 322.525,397.517L322.525,390.503L110.557,390.503L110.557,397.517C110.557,407.628 118.753,415.825 128.865,415.825Z" style="fill:rgb(162,159,176);fill-rule:nonzero;"/>
            <path d="M174.89,445.016L263.517,445.016C266.237,445.016 268.441,442.812 268.441,440.092C268.441,437.373 266.237,435.168 263.517,435.168L174.89,435.168C172.171,435.168 169.966,437.373 169.966,440.092C169.966,442.812 172.171,445.016 174.89,445.016Z" style="fill:rgb(162,159,176);fill-rule:nonzero;"/>
            <path d="M305.336,281.973L131.039,281.973C129.588,281.973 128.412,280.797 128.412,279.345L128.412,269.178C128.412,267.726 129.588,266.549 131.039,266.549L305.336,266.549C306.787,266.549 307.964,267.726 307.964,269.178L307.964,279.345C307.964,280.797 306.787,281.973 305.336,281.973Z" style="fill:rgb(110,137,196);fill-rule:nonzero;"/>
            <path d="M142.011,274.02C142.011,275.881 140.539,277.39 138.722,277.39C136.906,277.39 135.433,275.881 135.433,274.02C135.433,272.159 136.906,270.65 138.722,270.65C140.539,270.65 142.011,272.159 142.011,274.02Z" style="fill:rgb(235,84,68);fill-rule:nonzero;"/>
            <path d="M154.004,274.02C154.004,275.881 152.532,277.39 150.715,277.39C148.899,277.39 147.427,275.881 147.427,274.02C147.427,272.159 148.899,270.65 150.715,270.65C152.532,270.65 154.004,272.159 154.004,274.02Z" style="fill:rgb(255,197,67);fill-rule:nonzero;"/>
            <path d="M165.998,274.02C165.998,275.881 164.525,277.39 162.709,277.39C160.893,277.39 159.42,275.881 159.42,274.02C159.42,272.159 160.893,270.65 162.709,270.65C164.525,270.65 165.998,272.159 165.998,274.02Z" style="fill:rgb(161,204,58);fill-rule:nonzero;"/>
            <path d="M187.784,309.034L129.535,309.034C128.662,309.034 127.953,308.325 127.953,307.451L127.953,289.683C127.953,288.809 128.662,288.101 129.535,288.101L187.784,288.101C188.658,288.101 189.366,288.809 189.366,289.683L189.366,307.451C189.366,308.325 188.658,309.034 187.784,309.034Z" style="fill:rgb(48,61,111);fill-rule:nonzero;"/>
            <path d="M259.28,335.475L201.032,335.475C200.158,335.475 199.449,334.766 199.449,333.892L199.449,316.125C199.449,315.251 200.158,314.542 201.032,314.542L259.28,314.542C260.153,314.542 260.862,315.251 260.862,316.125L260.862,333.892C260.862,334.766 260.153,335.475 259.28,335.475Z" style="fill:rgb(103,140,110);fill-rule:nonzero;"/>
            <path d="M306.381,309.033L271.152,309.033C270.278,309.033 269.57,308.325 269.57,307.451L269.57,289.683C269.57,288.809 270.278,288.101 271.152,288.101L306.381,288.101C307.255,288.101 307.964,288.809 307.964,289.683L307.964,307.451C307.964,308.325 307.255,309.033 306.381,309.033Z" style="fill:rgb(103,140,110);fill-rule:nonzero;"/>
            <path d="M306.381,335.888L271.152,335.888C270.278,335.888 269.57,335.179 269.57,334.305L269.57,316.538C269.57,315.664 270.278,314.955 271.152,314.955L306.381,314.955C307.255,314.955 307.964,315.664 307.964,316.538L307.964,334.305C307.964,335.179 307.255,335.888 306.381,335.888Z" style="fill:rgb(235,84,68);fill-rule:nonzero;"/>
            <rect x="199.907" y="304.862" width="61.413" height="1.501" style="fill:rgb(24,34,78);fill-rule:nonzero;"/>
            <rect x="199.907" y="299.52" width="61.413" height="1.501" style="fill:rgb(24,34,78);fill-rule:nonzero;"/>
            <rect x="199.907" y="294.179" width="61.413" height="1.501" style="fill:rgb(24,34,78);fill-rule:nonzero;"/>
            <rect x="199.907" y="288.838" width="61.413" height="1.501" style="fill:rgb(24,34,78);fill-rule:nonzero;"/>
            <path d="M187.784,361.503L129.535,361.503C128.662,361.503 127.953,360.794 127.953,359.92L127.953,342.153C127.953,341.279 128.662,340.57 129.535,340.57L187.784,340.57C188.658,340.57 189.366,341.279 189.366,342.153L189.366,359.92C189.366,360.794 188.658,361.503 187.784,361.503Z" style="fill:rgb(235,84,68);fill-rule:nonzero;"/>
            <rect x="199.907" y="357.331" width="61.413" height="1.501" style="fill:rgb(24,34,78);fill-rule:nonzero;"/>
            <rect x="199.907" y="351.99" width="61.413" height="1.501" style="fill:rgb(24,34,78);fill-rule:nonzero;"/>
            <rect x="199.907" y="346.648" width="61.413" height="1.502" style="fill:rgb(24,34,78);fill-rule:nonzero;"/>
            <rect x="199.907" y="341.307" width="61.413" height="1.501" style="fill:rgb(24,34,78);fill-rule:nonzero;"/>
            <rect x="127.724" y="330.477" width="61.413" height="1.501" style="fill:rgb(24,34,78);fill-rule:nonzero;"/>
            <rect x="127.724" y="325.135" width="61.413" height="1.501" style="fill:rgb(24,34,78);fill-rule:nonzero;"/>
            <rect x="127.724" y="319.794" width="61.413" height="1.501" style="fill:rgb(24,34,78);fill-rule:nonzero;"/>
            <rect x="127.724" y="314.453" width="61.413" height="1.501" style="fill:rgb(24,34,78);fill-rule:nonzero;"/>
            <path d="M216.161,390.503L143.921,390.503L147.317,383.118L219.585,383.118L216.161,390.503ZM258.752,260.728L203.602,260.728L209,248.99L252.499,248.99C254.294,253.474 256.472,257.38 258.752,260.728Z" style="fill:rgb(58,59,85);fill-rule:nonzero;"/>
            <path d="M219.585,383.118L147.317,383.118L157.257,361.503L187.784,361.503C188.658,361.503 189.366,360.794 189.366,359.92L189.366,342.153C189.366,341.279 188.658,340.57 187.784,340.57L166.884,340.57L170.835,331.978L189.137,331.978L189.137,330.477L171.526,330.477L173.292,326.636L189.137,326.636L189.137,325.135L173.982,325.135L175.748,321.295L189.137,321.295L189.137,319.794L176.439,319.794L178.205,315.954L189.137,315.954L189.137,314.453L178.895,314.453L181.387,309.034L187.784,309.034C188.658,309.034 189.366,308.325 189.366,307.451L189.366,291.683L193.831,281.973L266.47,281.973L260.812,294.179L199.907,294.179L199.907,295.68L260.116,295.68L258.336,299.52L199.907,299.52L199.907,301.021L257.64,301.021L255.86,304.862L199.907,304.862L199.907,306.363L255.164,306.363L251.373,314.542L201.032,314.542C200.158,314.542 199.449,315.251 199.449,316.125L199.449,333.892C199.449,334.766 200.158,335.475 201.032,335.475L241.669,335.475L238.966,341.307L199.907,341.307L199.907,342.808L238.27,342.808L236.49,346.648L199.907,346.648L199.907,348.15L235.794,348.15L234.014,351.99L199.907,351.99L199.907,353.491L233.318,353.491L231.538,357.331L199.907,357.331L199.907,358.832L230.842,358.832L219.585,383.118ZM199.907,288.838L199.907,290.339L261.32,290.339L261.32,288.838L199.907,288.838ZM263.242,266.549L200.925,266.549L203.602,260.728L258.752,260.728C260.232,262.901 261.754,264.839 263.242,266.549Z" style="fill:white;fill-rule:nonzero;"/>
            <path d="M216.07,390.7L143.83,390.7L143.921,390.503L216.161,390.503L216.07,390.7Z" style="fill:rgb(190,190,213);fill-rule:nonzero;"/>
            <path d="M266.47,281.973L193.831,281.973L200.925,266.549L263.242,266.549C265.873,269.573 268.396,271.884 270.389,273.519L266.47,281.973Z" style="fill:rgb(143,175,219);fill-rule:nonzero;"/>
            <path d="M187.784,309.034L181.387,309.034L189.366,291.683L189.366,307.451C189.366,308.325 188.658,309.034 187.784,309.034Z" style="fill:rgb(63,81,163);fill-rule:nonzero;"/>
            <path d="M241.669,335.475L201.032,335.475C200.158,335.475 199.449,334.766 199.449,333.892L199.449,316.125C199.449,315.251 200.158,314.542 201.032,314.542L251.373,314.542L241.669,335.475Z" style="fill:rgb(134,179,162);fill-rule:nonzero;"/>
            <path d="M255.164,306.363L199.907,306.363L199.907,304.862L255.86,304.862L255.164,306.363Z" style="fill:rgb(37,51,112);fill-rule:nonzero;"/>
            <path d="M257.64,301.021L199.907,301.021L199.907,299.52L258.336,299.52L257.64,301.021Z" style="fill:rgb(37,51,112);fill-rule:nonzero;"/>
            <path d="M260.116,295.68L199.907,295.68L199.907,294.179L260.812,294.179L260.116,295.68Z" style="fill:rgb(37,51,112);fill-rule:nonzero;"/>
            <rect x="199.907" y="288.838" width="61.413" height="1.501" style="fill:rgb(37,51,112);fill-rule:nonzero;"/>
            <path d="M187.784,361.503L157.257,361.503L166.884,340.57L187.784,340.57C188.658,340.57 189.366,341.279 189.366,342.153L189.366,359.92C189.366,360.794 188.658,361.503 187.784,361.503Z" style="fill:rgb(242,110,100);fill-rule:nonzero;"/>
            <path d="M230.842,358.832L199.907,358.832L199.907,357.331L231.538,357.331L230.842,358.832Z" style="fill:rgb(37,51,112);fill-rule:nonzero;"/>
            <path d="M233.318,353.491L199.907,353.491L199.907,351.99L234.014,351.99L233.318,353.491Z" style="fill:rgb(37,51,112);fill-rule:nonzero;"/>
            <path d="M235.794,348.15L199.907,348.15L199.907,346.648L236.49,346.648L235.794,348.15Z" style="fill:rgb(37,51,112);fill-rule:nonzero;"/>
            <path d="M238.27,342.808L199.907,342.808L199.907,341.307L238.966,341.307L238.27,342.808Z" style="fill:rgb(37,51,112);fill-rule:nonzero;"/>
            <path d="M189.137,331.978L170.835,331.978L171.526,330.477L189.137,330.477L189.137,331.978Z" style="fill:rgb(37,51,112);fill-rule:nonzero;"/>
            <path d="M189.137,326.636L173.292,326.636L173.982,325.135L189.137,325.135L189.137,326.636Z" style="fill:rgb(37,51,112);fill-rule:nonzero;"/>
            <path d="M189.137,321.295L175.748,321.295L176.439,319.794L189.137,319.794L189.137,321.295Z" style="fill:rgb(37,51,112);fill-rule:nonzero;"/>
            <path d="M189.137,315.954L178.205,315.954L178.895,314.453L189.137,314.453L189.137,315.954Z" style="fill:rgb(37,51,112);fill-rule:nonzero;"/>
            <path d="M329.36,178.45L342.934,186.849C352.769,192.935 356.281,205.549 351.029,215.853C349.984,217.902 349.332,219.222 349.463,219.071C349.977,218.48 328.673,178.622 328.673,178.622" style="fill:rgb(124,76,57);fill-rule:nonzero;"/>
            <path d="M294.034,308.277L287.012,308.277C280.568,308.277 275.296,303.005 275.296,296.562L275.296,263.55C275.296,257.107 280.568,251.835 287.012,251.835L294.034,251.835C300.477,251.835 305.749,257.107 305.749,263.55L305.749,296.562C305.749,303.005 300.477,308.277 294.034,308.277Z" style="fill:rgb(250,187,164);fill-rule:nonzero;"/>
            <path d="M349.224,219.071C349.539,221.73 337.08,226.225 336.934,229.03L338.96,234.661C323.663,229.115 337.159,237.567 337.159,237.588C332.616,251.068 334.195,258.527 321.217,263.655C314.75,266.21 307.653,267.381 300.265,266.858C296.622,266.605 293.129,266.862 289.811,267.119C284.09,267.562 278.887,268.005 274.33,265.833C272.844,265.142 271.442,264.158 270.102,262.839C267.569,260.307 265.309,257.523 263.403,254.508C262.671,253.315 261.959,252.122 261.31,250.867C257.396,243.31 249.39,221.122 250.039,212.017C251.839,186.313 276.465,169.107 304.807,171.053C305.539,171.103 306.251,171.116 306.984,171.158C322.285,172.225 335.368,180.347 343.363,192.131C343.782,192.76 344.2,193.408 344.598,194.057L344.598,194.078C346.9,197.825 348.136,213.859 348.136,213.859C348.66,215.554 349.015,217.292 349.224,219.071Z" style="fill:rgb(124,76,57);fill-rule:nonzero;"/>
            <path d="M348.082,227.297L347.726,234.351L347.119,246.052L346.167,250.2C346.083,252.042 345.151,261.73 344.816,263.488C341.592,280.045 330.721,283.562 313.849,285.655C313.348,285.739 312.824,285.781 312.321,285.801C310.521,285.99 308.7,286.011 306.837,285.927C305.037,285.843 303.279,285.613 301.541,285.278C298.172,284.671 294.927,283.603 291.934,282.18L291.892,282.16C284.44,278.643 278.307,272.887 274.33,265.833C271.296,260.495 269.495,254.425 269.307,247.998C269.285,247.559 269.285,247.12 269.285,246.659C269.265,246.157 269.285,245.613 269.327,245.068L269.327,244.796L269.369,243.519L269.558,240.191L270.123,228.699L270.143,228.595L270.143,228.574L270.249,226.439L270.332,224.785L270.416,223.258L270.437,222.859C270.605,220.201 271.128,217.647 271.923,215.198C272.425,213.461 273.074,211.787 273.807,210.175C273.912,209.924 273.995,209.694 274.121,209.442C274.707,208.124 275.398,206.805 276.151,205.57L276.151,205.549C278.998,200.798 282.808,196.695 287.329,193.534C288.229,192.885 289.17,192.278 290.113,191.713C296.686,187.862 304.43,185.789 312.573,186.208C319.355,186.564 324.367,188.594 329.83,191.88C333.136,193.869 336.13,196.318 338.705,199.144C342.368,203.121 344.754,207.81 346.512,212.98C346.617,213.273 346.701,213.566 346.785,213.859C347.308,215.554 347.664,217.292 347.872,219.071C348.187,221.73 348.229,224.492 348.082,227.297Z" style="fill:rgb(251,198,177);fill-rule:nonzero;"/>
            <path d="M333.837,192.32C342.113,215.123 320.324,213.265 319.31,223.737C319.196,224.915 318.777,226.648 318.466,235.224L316.801,240.589C316.319,242.263 314.77,243.414 313.033,243.414C310.856,243.414 309.098,241.656 309.098,239.48L309.098,239.375L309.287,230.835L305.037,242.096C301.981,250.217 297.334,257.564 291.473,263.76C286.596,268.888 280.882,273.242 274.54,276.55C274.54,276.55 247.956,260.746 247.956,224.66C247.956,221.792 248.124,218.799 248.479,215.68C248.814,212.875 249.274,210.258 249.903,207.81C260.911,162.974 316.006,178.275 321.301,180.263C326.869,182.357 333.837,192.32 333.837,192.32Z" style="fill:rgb(124,76,57);fill-rule:nonzero;"/>
            <path d="M352.77,251.463L352.761,252.054C352.689,254.521 350.552,256.48 345.262,256.328L346.002,237.072C350.298,243.623 352.381,247.431 352.77,251.463Z" style="fill:rgb(251,198,177);fill-rule:nonzero;"/>
            <path d="M349.892,228.157L338.118,228.157C336.751,228.157 335.632,227.039 335.632,225.671C335.632,224.304 336.751,223.186 338.118,223.186L349.892,223.186C351.259,223.186 352.378,224.304 352.378,225.671C352.378,227.039 351.259,228.157 349.892,228.157Z" style="fill:rgb(124,76,57);fill-rule:nonzero;"/>
            <path d="M343.276,237.022C342.299,237.022 341.5,236.223 341.5,235.246L341.5,232.631C341.5,231.655 342.299,230.855 343.276,230.855C344.252,230.855 345.052,231.655 345.052,232.631L345.052,235.246C345.052,236.223 344.252,237.022 343.276,237.022Z" style="fill:rgb(19,22,67);fill-rule:nonzero;"/>
            <path d="M274.54,276.55C274.54,276.55 272.879,275.563 270.389,273.519C268.396,271.884 265.873,269.573 263.242,266.549C256.002,258.228 247.956,244.513 247.956,224.66C247.956,221.792 248.124,218.799 248.479,215.68C248.814,212.875 249.274,210.258 249.903,207.81C251.075,214.675 254.173,225.078 262.084,237.93C274.121,257.481 287.183,262.567 291.473,263.76C288.011,267.401 284.126,270.651 279.895,273.414C278.404,274.388 276.871,275.3 275.296,276.148C275.045,276.284 274.793,276.418 274.54,276.55Z" style="fill:rgb(101,65,60);fill-rule:nonzero;"/>
            <path d="M345.167,262.289L344.816,275.763C344.816,287.249 331.212,291.865 321.115,290.773L305.022,289.033L306.642,275.087L311.034,248.399L303.939,228.467L318.551,234.533L318.549,234.555C317.445,250.392 328.792,263.193 344.651,262.461L345.167,262.289Z" style="fill:rgb(124,76,57);fill-rule:nonzero;"/>
            <path d="M308.131,227.97C309.757,227.979 311.068,229.307 311.057,230.933L310.988,240.96L310.919,249.718L307.476,249.698C307.224,249.693 306.972,249.689 306.735,249.652C300.978,249.216 296.433,244.182 296.462,238.427C296.472,235.44 297.744,232.9 299.763,230.924C301.571,229.162 304.011,228.158 306.708,228.008L306.724,228.007C307.036,227.962 307.302,227.95 307.618,227.967L308.131,227.97Z" style="fill:rgb(250,187,164);fill-rule:nonzero;"/>
            <rect x="204.75" y="521.216" width="92.601" height="17.075" style="fill:rgb(19,22,67);fill-rule:nonzero;"/>
            <path d="M173.167,680.486L173.167,687.035" style="fill:none;fill-rule:nonzero;"/>
            <rect x="558.828" y="522.659" width="84.824" height="17.074" style="fill:rgb(113,112,131);fill-rule:nonzero;"/>
            <rect x="630" y="464.592" width="19.293" height="240.462" style="fill:rgb(113,112,131);fill-rule:nonzero;"/>
            <rect x="552.532" y="463.15" width="19.293" height="241.904" style="fill:rgb(178,175,194);fill-rule:nonzero;"/>
            <rect x="552.532" y="453.391" width="19.293" height="103.208" style="fill:rgb(113,112,131);fill-rule:nonzero;"/>
            <rect x="96.161" y="522.659" width="84.824" height="17.074" style="fill:rgb(113,112,131);fill-rule:nonzero;"/>
            <rect x="167.334" y="464.592" width="19.293" height="240.462" style="fill:rgb(113,112,131);fill-rule:nonzero;"/>
            <rect x="89.865" y="463.15" width="19.294" height="241.904" style="fill:rgb(113,112,131);fill-rule:nonzero;"/>
            <rect x="446.811" y="303.073" width="63.672" height="136.955" style="fill:rgb(89,86,104);fill-rule:nonzero;"/>
            <path d="M578.203,395.046L368.897,395.046L368.897,267.21C368.897,262.598 372.636,258.859 377.247,258.859L569.852,258.859C574.464,258.859 578.203,262.598 578.203,267.21L578.203,395.046Z" style="fill:rgb(222,222,221);fill-rule:nonzero;"/>
            <path d="M558.546,415.526L384.553,415.526C374.816,415.526 366.922,407.632 366.922,397.895L366.922,391.141L576.177,391.141L576.177,397.895C576.177,407.632 568.284,415.526 558.546,415.526Z" style="fill:rgb(222,222,221);fill-rule:nonzero;"/>
            <path d="M570.99,267.2L570.99,395.05L361.68,395.05L361.68,267.2C361.68,262.59 365.42,258.86 370.03,258.86L562.64,258.86C567.25,258.86 570.99,262.59 570.99,267.2Z" style="fill:rgb(118,118,132);fill-rule:nonzero;"/>
            <path d="M563.37,266.94L563.37,383.26C563.37,383.68 563.02,384.03 562.59,384.03L370.07,384.03C369.65,384.03 369.3,383.68 369.3,383.26L369.3,266.94C369.3,266.51 369.65,266.17 370.07,266.17L562.59,266.17C563.02,266.17 563.37,266.51 563.37,266.94Z" style="fill:rgb(32,53,104);fill-rule:nonzero;"/>
            <path d="M570.97,391.14L570.97,397.89C570.97,404.97 566.8,411.08 560.78,413.88C558.52,414.94 555.99,415.53 553.33,415.53L379.34,415.53C369.6,415.53 361.71,407.63 361.71,397.89L361.71,391.14L570.97,391.14Z" style="fill:rgb(172,170,196);fill-rule:nonzero;"/>
            <rect x="380.538" y="280.536" width="65.026" height="2.251" style="fill:rgb(110,137,196);fill-rule:nonzero;"/>
            <rect x="473.76" y="280.536" width="30.789" height="2.251" style="fill:rgb(222,222,221);fill-rule:nonzero;"/>
            <rect x="518.211" y="280.536" width="30.79" height="2.251" style="fill:rgb(255,197,67);fill-rule:nonzero;"/>
            <rect x="507.289" y="280.536" width="7.284" height="2.251" style="fill:rgb(110,137,196);fill-rule:nonzero;"/>
            <rect x="448.613" y="280.536" width="21.581" height="2.251" style="fill:rgb(235,84,68);fill-rule:nonzero;"/>
            <rect x="380.538" y="338.16" width="65.026" height="2.251" style="fill:rgb(110,137,196);fill-rule:nonzero;"/>
            <rect x="473.76" y="338.16" width="30.789" height="2.251" style="fill:rgb(222,222,221);fill-rule:nonzero;"/>
            <rect x="518.211" y="338.16" width="30.79" height="2.251" style="fill:rgb(255,197,67);fill-rule:nonzero;"/>
            <rect x="507.29" y="338.16" width="7.283" height="2.251" style="fill:rgb(110,137,196);fill-rule:nonzero;"/>
            <rect x="448.613" y="338.16" width="21.581" height="2.251" style="fill:rgb(162,159,176);fill-rule:nonzero;"/>
            <rect x="483.975" y="318.952" width="65.026" height="2.251" style="fill:rgb(110,137,196);fill-rule:nonzero;"/>
            <rect x="424.99" y="318.952" width="30.789" height="2.251" style="fill:rgb(222,222,221);fill-rule:nonzero;"/>
            <rect x="380.538" y="318.952" width="30.789" height="2.251" style="fill:rgb(255,197,67);fill-rule:nonzero;"/>
            <rect x="414.966" y="318.952" width="7.284" height="2.251" style="fill:rgb(110,137,196);fill-rule:nonzero;"/>
            <rect x="459.345" y="318.952" width="21.581" height="2.251" style="fill:rgb(162,159,176);fill-rule:nonzero;"/>
            <rect x="380.538" y="290.14" width="24.385" height="2.251" style="fill:rgb(235,84,68);fill-rule:nonzero;"/>
            <rect x="453.439" y="290.14" width="10.469" height="2.251" style="fill:rgb(110,137,196);fill-rule:nonzero;"/>
            <rect x="497.891" y="290.14" width="51.11" height="2.251" style="fill:rgb(222,222,221);fill-rule:nonzero;"/>
            <rect x="466.647" y="290.14" width="27.605" height="2.251" style="fill:rgb(110,137,196);fill-rule:nonzero;"/>
            <rect x="407.971" y="290.14" width="41.902" height="2.251" style="fill:rgb(110,137,196);fill-rule:nonzero;"/>
            <rect x="380.538" y="347.764" width="24.385" height="2.252" style="fill:rgb(110,137,196);fill-rule:nonzero;"/>
            <rect x="453.439" y="347.764" width="10.469" height="2.252" style="fill:rgb(110,137,196);fill-rule:nonzero;"/>
            <rect x="497.891" y="347.764" width="51.11" height="2.252" style="fill:rgb(110,137,196);fill-rule:nonzero;"/>
            <rect x="466.647" y="347.764" width="27.605" height="2.252" style="fill:rgb(110,137,196);fill-rule:nonzero;"/>
            <rect x="407.971" y="347.764" width="41.902" height="2.252" style="fill:rgb(110,137,196);fill-rule:nonzero;"/>
            <rect x="380.538" y="328.556" width="24.385" height="2.251" style="fill:rgb(235,84,68);fill-rule:nonzero;"/>
            <rect x="453.439" y="328.556" width="10.469" height="2.251" style="fill:rgb(110,137,196);fill-rule:nonzero;"/>
            <rect x="497.891" y="328.556" width="51.11" height="2.251" style="fill:rgb(222,222,221);fill-rule:nonzero;"/>
            <rect x="466.647" y="328.556" width="27.605" height="2.251" style="fill:rgb(110,137,196);fill-rule:nonzero;"/>
            <rect x="407.971" y="328.556" width="41.902" height="2.251" style="fill:rgb(110,137,196);fill-rule:nonzero;"/>
            <rect x="380.538" y="299.744" width="24.385" height="2.251" style="fill:rgb(222,222,221);fill-rule:nonzero;"/>
            <rect x="407.971" y="299.744" width="41.902" height="2.251" style="fill:rgb(110,137,196);fill-rule:nonzero;"/>
            <rect x="425.488" y="309.348" width="24.385" height="2.251" style="fill:rgb(222,222,221);fill-rule:nonzero;"/>
            <rect x="380.538" y="309.348" width="41.902" height="2.251" style="fill:rgb(110,137,196);fill-rule:nonzero;"/>
            <path d="M509.012,443.637L423.664,443.637C421.045,443.637 418.922,441.514 418.922,438.895C418.922,436.276 421.045,434.153 423.664,434.153L509.012,434.153C511.631,434.153 513.754,436.276 513.754,438.895C513.754,441.514 511.631,443.637 509.012,443.637Z" style="fill:rgb(74,73,96);fill-rule:nonzero;"/>
            <path d="M665.785,464.407L396.676,464.407L396.676,450.496C396.676,446.286 400.089,442.872 404.299,442.872L658.161,442.872C662.371,442.872 665.785,446.286 665.785,450.496L665.785,464.407Z" style="fill:rgb(232,146,113);fill-rule:nonzero;"/>
            <path d="M587.34,450.5L587.34,464.41L69.229,464.41L69.229,450.5C69.229,446.29 72.64,442.87 76.85,442.87L579.72,442.87C583.93,442.87 587.34,446.29 587.34,450.5Z" style="fill:rgb(166,72,61);fill-rule:nonzero;"/>
            <path d="M437.43,442.87C433.32,449.57 428.42,457.56 424.23,464.41L297.47,464.41L299.2,442.87L437.43,442.87Z" style="fill:rgb(133,53,48);fill-rule:nonzero;"/>
            <rect x="692.711" y="538.214" width="133.143" height="166.84" style="fill:rgb(128,57,85);fill-rule:nonzero;"/>
            <rect x="645.529" y="538.214" width="130.846" height="166.84" style="fill:rgb(110,56,86);fill-rule:nonzero;"/>
            <rect x="644.038" y="550.707" width="124.122" height="45.135" style="fill:rgb(223,125,84);fill-rule:nonzero;"/>
            <rect x="644.038" y="603.671" width="124.122" height="45.135" style="fill:rgb(223,125,84);fill-rule:nonzero;"/>
            <rect x="644.038" y="656.635" width="124.122" height="48.419" style="fill:rgb(223,125,84);fill-rule:nonzero;"/>
            <path d="M683.531,575.692L714.562,575.692C715.892,575.692 716.98,574.604 716.98,573.274C716.98,571.944 715.892,570.856 714.562,570.856L683.531,570.856C682.201,570.856 681.113,571.944 681.113,573.274C681.113,574.604 682.201,575.692 683.531,575.692Z" style="fill:white;fill-rule:nonzero;"/>
            <path d="M682.322,628.283L713.353,628.283C714.683,628.283 715.771,627.195 715.771,625.865C715.771,624.535 714.683,623.447 713.353,623.447L682.322,623.447C680.992,623.447 679.904,624.535 679.904,625.865C679.904,627.195 680.992,628.283 682.322,628.283Z" style="fill:white;fill-rule:nonzero;"/>
            <path d="M682.322,680.874L713.353,680.874C714.683,680.874 715.771,679.786 715.771,678.456C715.771,677.126 714.683,676.038 713.353,676.038L682.322,676.038C680.992,676.038 679.904,677.126 679.904,678.456C679.904,679.786 680.992,680.874 682.322,680.874Z" style="fill:white;fill-rule:nonzero;"/>
            <path d="M341.948,715.255L404.14,715.917C407.849,715.956 410.887,712.982 410.926,709.273C410.957,706.417 409.177,703.854 406.491,702.885L375.834,691.824L342.192,692.286L341.948,715.255Z" style="fill:rgb(128,57,85);fill-rule:nonzero;"/>
            <path d="M405.368,717.657L342.406,717.454L342.42,712.942L409.894,713.16C409.886,715.652 407.859,717.666 405.368,717.657Z" style="fill:rgb(19,22,67);fill-rule:nonzero;"/>
            <path d="M375.044,700.916L382.373,693.134" style="fill:none;stroke:rgb(19,22,67);stroke-width:1.49px;stroke-linecap:round;"/>
            <path d="M380.388,703.191L387.717,695.408" style="fill:none;stroke:rgb(19,22,67);stroke-width:1.49px;stroke-linecap:round;"/>
            <path d="M385.502,706.228L393.753,697.403" style="fill:none;stroke:rgb(19,22,67);stroke-width:1.49px;stroke-linecap:round;"/>
            <path d="M339.829,694.823C343.438,634.157 342.464,578.07 337.738,566.711C332.892,559.657 295.11,544.371 257.349,542.722L275.02,504.145C324.548,506.634 359.951,525.216 372.334,546.456C377.562,555.42 382.102,573.502 379.653,635.361C378.37,667.761 376.788,693.143 376.788,693.143L339.829,694.823Z" style="fill:rgb(26,27,44);fill-rule:nonzero;"/>
            <path d="M397.326,716.802L459.52,717.232C463.229,717.258 466.256,714.272 466.281,710.563C466.301,707.707 464.512,705.151 461.822,704.192L431.125,693.245L397.484,693.832L397.326,716.802Z" style="fill:rgb(161,82,58);fill-rule:nonzero;"/>
            <path d="M460.754,718.968L396.792,718.999L396.789,714.487L465.264,714.454C465.265,716.946 463.246,718.967 460.754,718.968Z" style="fill:rgb(19,22,67);fill-rule:nonzero;"/>
            <path d="M430.368,702.34L437.668,694.53" style="fill:none;stroke:rgb(19,22,67);stroke-width:1.49px;stroke-linecap:round;"/>
            <path d="M435.721,704.594L443.021,696.784" style="fill:none;stroke:rgb(19,22,67);stroke-width:1.49px;stroke-linecap:round;"/>
            <path d="M440.847,707.613L449.064,698.757" style="fill:none;stroke:rgb(19,22,67);stroke-width:1.49px;stroke-linecap:round;"/>
            <path d="M395.081,694.823C398.69,634.157 397.716,578.07 392.991,566.711C388.144,559.657 350.363,544.371 312.602,542.722L330.272,504.145C379.8,506.634 415.204,525.216 427.586,546.456C432.814,555.42 437.354,573.502 434.905,635.361C433.622,667.761 432.041,693.143 432.041,693.143L395.081,694.823Z" style="fill:rgb(26,27,44);fill-rule:nonzero;"/>
            <path d="M341.859,515.245C341.859,522.039 339.44,528.266 335.424,533.12C330.287,539.346 322.492,543.319 313.771,543.319L266.567,543.319C265.164,543.319 263.79,543.215 262.446,543.005C258.98,542.512 255.726,541.363 252.799,539.705C252.276,539.422 251.769,539.108 251.275,538.779C243.585,533.777 238.493,525.1 238.493,515.245L239.359,500.267L341.039,499.386L341.859,515.245Z" style="fill:rgb(26,27,44);fill-rule:nonzero;"/>
            <path d="M374.288,435.247L398.619,431.358C400.396,431.074 401.617,429.388 401.333,427.611C401.049,425.834 399.363,424.613 397.586,424.897L373.255,428.786C371.479,429.07 370.257,430.756 370.541,432.533C370.825,434.31 372.511,435.531 374.288,435.247Z" style="fill:rgb(250,187,164);fill-rule:nonzero;"/>
            <path d="M382.035,441.825L401.571,438.703C403.348,438.419 404.569,436.733 404.285,434.956C404.001,433.179 402.315,431.958 400.538,432.241L381.002,435.364C379.226,435.648 378.004,437.334 378.288,439.111C378.572,440.888 380.258,442.109 382.035,441.825Z" style="fill:rgb(250,187,164);fill-rule:nonzero;"/>
            <path d="M377.519,450.356L400.642,446.66C402.418,446.376 403.64,444.69 403.355,442.913C403.072,441.136 401.385,439.915 399.608,440.199L376.485,443.895C374.709,444.179 373.487,445.865 373.771,447.642C374.056,449.419 375.742,450.64 377.519,450.356Z" style="fill:rgb(250,187,164);fill-rule:nonzero;"/>
            <path d="M384.791,428.956C384.53,428.987 381.545,428.946 378.312,428.892C372.728,428.799 367.201,430.038 362.189,432.502L352.593,437.223C352.593,437.223 358.089,453.532 358.847,453.669C377.348,457.013 383.695,448.613 383.695,448.613L384.791,428.956Z" style="fill:rgb(250,187,164);fill-rule:nonzero;"/>
            <rect x="362.253" y="428.892" width="8.213" height="26.692" style="fill:white;fill-rule:nonzero;"/>
            <path d="M308.432,458.481C289.068,458.481 271.364,447.178 263.229,429.575L262.827,428.706L237.482,351.309L268.704,341.085L293.402,416.508C296.333,422.136 302.227,425.698 308.599,425.627L362.439,425.094L362.765,457.946L308.924,458.479C308.761,458.48 308.595,458.481 308.432,458.481Z" style="fill:rgb(26,27,44);fill-rule:nonzero;"/>
            <path d="M484.105,426.569C482.092,422.981 479.069,420.044 475.379,418.226L475.292,418.183C470.274,415.731 464.743,414.511 459.16,414.62L448.467,414.827C448.467,414.827 445.758,438.026 445.897,437.269C446.173,435.763 472.038,436.15 483.89,436.407C486.457,436.462 488.108,433.706 486.852,431.466L484.105,426.569Z" style="fill:rgb(250,187,164);fill-rule:nonzero;"/>
            <rect x="441.996" y="413.08" width="10.204" height="27.341" style="fill:white;fill-rule:nonzero;"/>
            <path d="M392.057,443.548C372.694,443.548 354.99,432.245 346.854,414.642L310.357,335.666L340.18,321.885L376.676,400.86C379.468,406.9 385.508,410.775 392.224,410.695L446.064,410.162L446.389,443.013L392.549,443.546C392.386,443.547 392.221,443.548 392.057,443.548Z" style="fill:rgb(36,37,58);fill-rule:nonzero;"/>
            <path d="M350.567,351.116L349.958,420.077L349.187,507.881C349.187,507.881 347.292,509.999 341.651,512.966C336.756,515.547 329.057,518.769 317.33,521.812C303.664,525.362 284.418,525.91 267.975,525.507C249.834,525.062 235.115,523.467 235.115,523.467L235.492,351.116C235.492,326.863 253.049,306.691 276.154,302.627C278.931,302.147 281.786,301.899 284.709,301.899L301.35,301.899C328.526,301.899 350.567,323.94 350.567,351.116Z" style="fill:rgb(36,37,58);fill-rule:nonzero;"/>
            <rect x="273.792" y="577.402" width="16.614" height="95.368" style="fill:rgb(178,175,194);fill-rule:nonzero;"/>
            <path d="M273.792,582.779L273.792,603.653L290.406,597.593L290.406,583.461C286.248,583.276 278.246,582.963 273.792,582.779Z" style="fill:rgb(113,112,131);fill-rule:nonzero;"/>
            <path d="M333.209,585.644L233.735,585.644C228.637,585.644 224.465,581.472 224.465,576.374C224.465,571.275 228.637,567.104 233.735,567.104L333.209,567.104C338.308,567.104 342.479,571.275 342.479,576.374C342.479,581.472 338.308,585.644 333.209,585.644Z" style="fill:rgb(44,45,58);fill-rule:nonzero;"/>
            <path d="M352.511,703.564L342.118,703.564C342.118,691.86 332.017,682.338 319.601,682.338L243.88,682.338C231.463,682.338 221.362,691.86 221.362,703.564L210.969,703.564C210.969,686.458 225.733,672.542 243.88,672.542L319.601,672.542C337.748,672.542 352.511,686.458 352.511,703.564Z" style="fill:rgb(44,45,58);fill-rule:nonzero;"/>
            <rect x="269.862" y="657.846" width="24.251" height="14.929" style="fill:rgb(44,45,58);fill-rule:nonzero;"/>
            <path d="M224.402,713.037C224.402,717.531 220.537,721.174 215.769,721.174C211.001,721.174 207.136,717.531 207.136,713.037C207.136,708.542 211.001,704.899 215.769,704.899C220.537,704.899 224.402,708.542 224.402,713.037Z" style="fill:rgb(19,22,67);fill-rule:nonzero;"/>
            <path d="M228.219,712.319L204.592,712.319L204.592,710.167C204.592,704.076 209.53,699.138 215.622,699.138L217.189,699.138C223.281,699.138 228.219,704.076 228.219,710.167L228.219,712.319Z" style="fill:rgb(24,34,78);fill-rule:nonzero;"/>
            <path d="M356.435,713.037C356.435,717.531 352.57,721.174 347.802,721.174C343.035,721.174 339.169,717.531 339.169,713.037C339.169,708.542 343.035,704.899 347.802,704.899C352.57,704.899 356.435,708.542 356.435,713.037Z" style="fill:rgb(19,22,67);fill-rule:nonzero;"/>
            <path d="M360.252,712.319L336.625,712.319L336.625,710.167C336.625,704.076 341.563,699.138 347.655,699.138L349.223,699.138C355.314,699.138 360.252,704.076 360.252,710.167L360.252,712.319Z" style="fill:rgb(24,34,78);fill-rule:nonzero;"/>
            <rect x="275.598" y="675.574" width="13.757" height="29.389" style="fill:rgb(44,45,58);fill-rule:nonzero;"/>
            <path d="M291.4,713.037C291.4,717.531 287.535,721.174 282.767,721.174C277.999,721.174 274.134,717.531 274.134,713.037C274.134,708.542 277.999,704.899 282.767,704.899C287.535,704.899 291.4,708.542 291.4,713.037Z" style="fill:rgb(19,22,67);fill-rule:nonzero;"/>
            <path d="M295.216,712.319L271.59,712.319L271.59,710.167C271.59,704.076 276.528,699.138 282.619,699.138L284.187,699.138C290.278,699.138 295.216,704.076 295.216,710.167L295.216,712.319Z" style="fill:rgb(24,34,78);fill-rule:nonzero;"/>
            <path d="M149.817,397.957L172.066,558.567C173.419,568.334 181.618,575.703 191.473,576.01L272.667,576.94L227.519,374.984L169.886,374.952C157.598,374.933 148.131,385.784 149.817,397.957Z" style="fill:rgb(159,41,60);fill-rule:nonzero;"/>
            <path d="M368.549,576.94L255.677,576.94C246.054,576.94 238.18,569.067 238.18,559.444C238.18,549.821 246.054,541.947 255.677,541.947L368.549,541.947C378.172,541.947 386.045,549.821 386.045,559.444C386.045,569.067 378.172,576.94 368.549,576.94Z" style="fill:rgb(239,71,71);fill-rule:nonzero;"/>
            <path d="M262.084,345.929C259.898,377.589 266.063,491.781 267.975,525.507C249.834,525.062 235.115,523.467 235.115,523.467L235.492,351.116C235.492,326.863 253.049,306.691 276.154,302.627C276.154,302.627 264.657,308.637 262.084,345.929Z" style="fill:rgb(26,27,44);fill-rule:nonzero;"/>
            <path d="M318.674,304.882L267.901,304.882L267.901,290.696L318.674,296.696L318.674,304.882Z" style="fill:white;fill-rule:nonzero;"/>
            <path d="M236.717,554.839L213.132,390.126C212.081,382.788 217.591,375.974 225.375,374.984C233.161,373.993 240.39,379.187 241.44,386.525L265.025,551.238C266.076,558.576 260.566,565.39 252.781,566.38C244.997,567.371 240.968,572.874 236.717,554.839Z" style="fill:rgb(239,71,71);fill-rule:nonzero;"/>
            <path d="M349.958,420.077L349.187,507.881C349.187,507.881 347.292,509.999 341.651,512.966L329.958,380.633C329.958,380.633 340.673,407.415 349.958,420.077Z" style="fill:rgb(26,27,44);fill-rule:nonzero;"/>
            <path d="M499.782,415.53L498.33,415.53C498.788,415.057 499.272,414.555 499.782,414.027L499.782,415.53Z" style="fill:rgb(125,123,148);"/>
            <path d="M548.74,391.14L521.74,391.14C523.961,388.805 526.222,386.422 528.481,384.03L550.711,384.03L548.74,391.14Z" style="fill:rgb(87,87,100);fill-rule:nonzero;"/>
            <path d="M550.711,384.03L528.481,384.03C541.162,370.606 553.855,356.867 560,349.33L560.265,349.562L550.711,384.03Z" style="fill:rgb(21,38,77);fill-rule:nonzero;"/>
            <path d="M541.98,415.53L535.775,415.53L535.775,400.494C535.775,398.597 534.23,397.053 532.333,397.053L516.104,397.053C517.939,395.132 519.826,393.154 521.74,391.14L548.74,391.14L541.98,415.53Z" style="fill:rgb(125,123,148);fill-rule:nonzero;"/>
            <path d="M540.439,442.633L649.299,442.633C649.904,441.763 650.383,440.779 650.673,439.72L675.029,351.797C676.202,347.609 673.049,343.459 668.697,343.459L572.916,343.459C569.965,343.459 567.379,345.44 566.585,348.278L540.439,442.633Z" style="fill:rgb(222,222,221);fill-rule:nonzero;"/>
            <path d="M669.83,348.66L645.49,436.5C644.36,440.59 640.64,443.42 636.39,443.42L534.25,443.42L561.49,345.14C562.28,342.3 564.86,340.33 567.81,340.33L663.5,340.33C667.85,340.33 670.99,344.47 669.83,348.66Z" style="fill:rgb(162,159,176);fill-rule:nonzero;"/>
            <path d="M664.452,352.527L644.562,424.154L640.389,439.156L539.059,439.156L543.219,424.154L564.024,349.268C564.751,346.636 567.158,344.819 569.89,344.819L658.586,344.819C662.61,344.819 665.53,348.655 664.452,352.527Z" style="fill:rgb(32,53,104);fill-rule:nonzero;"/>
            <path d="M604.763,354.562L573.574,354.562L574.269,352.368L605.457,352.368L604.763,354.562Z" style="fill:rgb(237,239,242);fill-rule:nonzero;"/>
            <path d="M633.052,354.562L618.285,354.562L618.98,352.368L633.747,352.368L633.052,354.562Z" style="fill:rgb(235,84,68);fill-rule:nonzero;"/>
            <path d="M654.373,354.562L639.605,354.562L640.3,352.368L655.067,352.368L654.373,354.562Z" style="fill:rgb(162,159,176);fill-rule:nonzero;"/>
            <path d="M637.86,354.562L634.367,354.562L635.061,352.368L638.554,352.368L637.86,354.562Z" style="fill:rgb(110,137,196);fill-rule:nonzero;"/>
            <path d="M616.575,354.562L606.225,354.562L606.919,352.368L617.269,352.368L616.575,354.562Z" style="fill:rgb(162,159,176);fill-rule:nonzero;"/>
            <path d="M583.044,391.984L597.811,391.984L598.506,389.791L583.739,389.791L583.044,391.984Z" style="fill:rgb(222,222,221);fill-rule:nonzero;"/>
            <path d="M561.725,391.984L576.492,391.984L577.186,389.791L562.419,389.791L561.725,391.984Z" style="fill:rgb(255,197,67);fill-rule:nonzero;"/>
            <path d="M578.237,391.984L581.73,391.984L582.425,389.791L578.932,389.791L578.237,391.984Z" style="fill:rgb(110,137,196);fill-rule:nonzero;"/>
            <path d="M582.308,363.917L570.612,363.917L571.306,361.724L583.002,361.724L582.308,363.917Z" style="fill:rgb(235,84,68);fill-rule:nonzero;"/>
            <path d="M610.598,363.917L605.577,363.917L606.271,361.724L611.292,361.724L610.598,363.917Z" style="fill:rgb(110,137,196);fill-rule:nonzero;"/>
            <path d="M651.41,363.917L626.896,363.917L627.591,361.724L652.104,361.724L651.41,363.917Z" style="fill:rgb(235,84,68);fill-rule:nonzero;"/>
            <path d="M625.151,363.917L611.911,363.917L612.606,361.724L625.846,361.724L625.151,363.917Z" style="fill:rgb(110,137,196);fill-rule:nonzero;"/>
            <path d="M603.867,363.917L583.77,363.917L584.464,361.724L604.561,361.724L603.867,363.917Z" style="fill:rgb(110,137,196);fill-rule:nonzero;"/>
            <path d="M564.533,420.051L552.837,420.051L553.532,417.858L565.227,417.858L564.533,420.051Z" style="fill:rgb(48,61,111);fill-rule:nonzero;"/>
            <path d="M579.345,373.273L567.649,373.273L568.344,371.08L580.04,371.08L579.345,373.273Z" style="fill:rgb(222,222,221);fill-rule:nonzero;"/>
            <path d="M598.433,373.273L586.737,373.273L587.431,371.08L599.127,371.08L598.433,373.273Z" style="fill:rgb(222,222,221);fill-rule:nonzero;"/>
            <path d="M645.201,373.273L625.104,373.273L625.798,371.08L645.896,371.08L645.201,373.273Z" style="fill:rgb(110,137,196);fill-rule:nonzero;"/>
            <path d="M564.687,382.628L584.784,382.628L585.479,380.435L565.381,380.435L564.687,382.628Z" style="fill:rgb(110,137,196);fill-rule:nonzero;"/>
            <path d="M645.887,424.154L641.608,439.156L537.734,439.156L542,424.154L645.887,424.154Z" style="fill:rgb(162,159,176);fill-rule:nonzero;"/>
            <path d="M589.946,443.657L465.517,443.657C462.609,443.657 460.229,441.278 460.229,438.369C460.229,435.461 462.609,433.081 465.517,433.081L589.946,433.081C592.855,433.081 595.234,435.461 595.234,438.369C595.234,441.278 592.855,443.657 589.946,443.657Z" style="fill:rgb(162,159,176);fill-rule:nonzero;"/>
            <path d="M636.82,344.819L597.69,344.819L599.74,340.33L638.87,340.33L636.82,344.819Z" style="fill:rgb(193,195,218);fill-rule:nonzero;"/>
            <path d="M600.598,424.154L561.468,424.154L561.47,424.15L563.341,420.051L564.533,420.051L565.227,417.858L564.343,417.858L576.156,391.984L576.492,391.984L577.186,389.791L577.157,389.791L580.428,382.628L584.784,382.628L585.479,380.435L581.429,380.435L588.971,363.917L603.867,363.917L604.561,361.724L589.972,361.724L593.242,354.562L604.763,354.562L605.457,352.368L594.243,352.368L597.69,344.82L597.69,344.819L636.82,344.819L636.82,344.82L633.373,352.368L618.98,352.368L618.285,354.562L632.372,354.562L629.102,361.724L627.591,361.724L626.896,363.917L628.101,363.917L600.6,424.15L600.598,424.154ZM583.739,389.791L583.044,391.984L597.811,391.984L598.506,389.791L583.739,389.791ZM578.932,389.791L578.237,391.984L581.73,391.984L582.425,389.791L578.932,389.791ZM587.431,371.08L586.737,373.273L598.433,373.273L599.127,371.08L587.431,371.08ZM612.606,361.724L611.911,363.917L625.151,363.917L625.846,361.724L612.606,361.724ZM606.271,361.724L605.577,363.917L610.598,363.917L611.292,361.724L606.271,361.724ZM606.919,352.368L606.225,354.562L616.575,354.562L617.269,352.368L606.919,352.368Z" style="fill:rgb(39,73,157);fill-rule:nonzero;"/>
            <path d="M604.763,354.562L593.242,354.562L594.243,352.368L605.457,352.368L604.763,354.562Z" style="fill:rgb(245,247,250);fill-rule:nonzero;"/>
            <path d="M632.372,354.562L618.285,354.562L618.98,352.368L633.373,352.368L632.372,354.562Z" style="fill:rgb(242,115,103);fill-rule:nonzero;"/>
            <path d="M616.575,354.562L606.225,354.562L606.919,352.368L617.269,352.368L616.575,354.562Z" style="fill:rgb(193,195,218);fill-rule:nonzero;"/>
            <path d="M597.811,391.984L583.044,391.984L583.739,389.791L598.506,389.791L597.811,391.984Z" style="fill:rgb(233,234,240);fill-rule:nonzero;"/>
            <path d="M576.492,391.984L576.156,391.984L577.157,389.791L577.186,389.791L576.492,391.984Z" style="fill:rgb(253,219,102);fill-rule:nonzero;"/>
            <path d="M581.73,391.984L578.237,391.984L578.932,389.791L582.425,389.791L581.73,391.984Z" style="fill:rgb(147,181,223);fill-rule:nonzero;"/>
            <path d="M610.598,363.917L605.577,363.917L606.271,361.724L611.292,361.724L610.598,363.917Z" style="fill:rgb(147,181,223);fill-rule:nonzero;"/>
            <path d="M628.101,363.917L626.896,363.917L627.591,361.724L629.102,361.724L628.101,363.917Z" style="fill:rgb(242,115,103);fill-rule:nonzero;"/>
            <path d="M625.151,363.917L611.911,363.917L612.606,361.724L625.846,361.724L625.151,363.917Z" style="fill:rgb(147,181,223);fill-rule:nonzero;"/>
            <path d="M603.867,363.917L588.971,363.917L589.972,361.724L604.561,361.724L603.867,363.917Z" style="fill:rgb(147,181,223);fill-rule:nonzero;"/>
            <path d="M564.533,420.051L563.341,420.051L564.343,417.858L565.227,417.858L564.533,420.051Z" style="fill:rgb(65,85,165);fill-rule:nonzero;"/>
            <path d="M598.433,373.273L586.737,373.273L587.431,371.08L599.127,371.08L598.433,373.273Z" style="fill:rgb(233,234,240);fill-rule:nonzero;"/>
            <path d="M584.784,382.628L580.428,382.628L581.429,380.435L585.479,380.435L584.784,382.628Z" style="fill:rgb(147,181,223);fill-rule:nonzero;"/>
            <path d="M596.86,432.33L557.73,432.33L561.468,424.154L600.598,424.154L596.86,432.33Z" style="fill:rgb(193,195,218);fill-rule:nonzero;"/>
            <path d="M469.95,384.03L412.39,384.03L427.925,350.016L449.873,350.016L449.873,347.764L428.954,347.764L432.312,340.411L445.564,340.411L445.564,338.16L433.34,338.16L436.698,330.807L449.873,330.807L449.873,328.556L437.726,328.556L441.085,321.203L455.779,321.203L455.779,318.952L442.113,318.952L445.471,311.599L449.873,311.599L449.873,309.348L446.499,309.348L449.858,301.995L449.873,301.995L449.873,301.961L454.244,292.391L463.908,292.391L463.908,290.14L455.272,290.14L458.63,282.787L470.194,282.787L470.194,280.536L459.659,280.536L466.22,266.17L523.78,266.17L512.833,290.14L497.891,290.14L497.891,292.391L511.804,292.391L499.673,318.952L483.975,318.952L483.975,321.203L498.645,321.203L490.9,338.16L473.76,338.16L473.76,340.411L489.872,340.411L486.514,347.764L466.647,347.764L466.647,350.016L485.485,350.016L469.95,384.03ZM453.439,347.764L453.439,350.016L463.908,350.016L463.908,347.764L453.439,347.764ZM448.613,338.16L448.613,340.411L470.194,340.411L470.194,338.16L448.613,338.16ZM466.647,328.556L466.647,330.807L494.252,330.807L494.252,328.556L466.647,328.556ZM453.439,328.556L453.439,330.807L463.908,330.807L463.908,328.556L453.439,328.556ZM459.345,318.952L459.345,321.203L480.926,321.203L480.926,318.952L459.345,318.952ZM466.647,290.14L466.647,292.391L494.252,292.391L494.252,290.14L466.647,290.14ZM507.289,280.536L507.289,282.787L514.573,282.787L514.573,280.536L507.289,280.536ZM473.76,280.536L473.76,282.787L504.549,282.787L504.549,280.536L473.76,280.536Z" style="fill:rgb(39,73,157);fill-rule:nonzero;"/>
            <rect x="473.76" y="280.536" width="30.789" height="2.251" style="fill:rgb(233,234,240);fill-rule:nonzero;"/>
            <rect x="507.289" y="280.536" width="7.284" height="2.251" style="fill:rgb(147,181,223);fill-rule:nonzero;"/>
            <path d="M470.194,282.787L458.63,282.787L459.659,280.536L470.194,280.536L470.194,282.787Z" style="fill:rgb(242,115,103);fill-rule:nonzero;"/>
            <path d="M445.564,340.411L432.312,340.411L433.34,338.16L445.564,338.16L445.564,340.411Z" style="fill:rgb(147,181,223);fill-rule:nonzero;"/>
            <path d="M489.872,340.411L473.76,340.411L473.76,338.16L490.9,338.16L489.872,340.411Z" style="fill:rgb(233,234,240);fill-rule:nonzero;"/>
            <rect x="448.613" y="338.16" width="21.581" height="2.251" style="fill:rgb(193,195,218);fill-rule:nonzero;"/>
            <path d="M498.645,321.203L483.975,321.203L483.975,318.952L499.673,318.952L498.645,321.203Z" style="fill:rgb(147,181,223);fill-rule:nonzero;"/>
            <path d="M455.779,321.203L441.085,321.203L442.113,318.952L455.779,318.952L455.779,321.203Z" style="fill:rgb(233,234,240);fill-rule:nonzero;"/>
            <rect x="459.345" y="318.952" width="21.581" height="2.251" style="fill:rgb(193,195,218);fill-rule:nonzero;"/>
            <path d="M463.908,292.391L454.244,292.391L455.272,290.14L463.908,290.14L463.908,292.391Z" style="fill:rgb(147,181,223);fill-rule:nonzero;"/>
            <path d="M511.804,292.391L497.891,292.391L497.891,290.14L512.833,290.14L511.804,292.391Z" style="fill:rgb(233,234,240);fill-rule:nonzero;"/>
            <rect x="466.647" y="290.14" width="27.605" height="2.251" style="fill:rgb(147,181,223);fill-rule:nonzero;"/>
            <rect x="453.439" y="347.764" width="10.469" height="2.252" style="fill:rgb(147,181,223);fill-rule:nonzero;"/>
            <path d="M485.485,350.016L466.647,350.016L466.647,347.764L486.514,347.764L485.485,350.016Z" style="fill:rgb(147,181,223);fill-rule:nonzero;"/>
            <path d="M449.873,350.016L427.925,350.016L428.954,347.764L449.873,347.764L449.873,350.016Z" style="fill:rgb(147,181,223);fill-rule:nonzero;"/>
            <rect x="453.439" y="328.556" width="10.469" height="2.251" style="fill:rgb(147,181,223);fill-rule:nonzero;"/>
            <rect x="466.647" y="328.556" width="27.605" height="2.251" style="fill:rgb(147,181,223);fill-rule:nonzero;"/>
            <path d="M449.873,330.807L436.698,330.807L437.726,328.556L449.873,328.556L449.873,330.807Z" style="fill:rgb(147,181,223);fill-rule:nonzero;"/>
            <path d="M449.873,301.995L449.858,301.995L449.873,301.961L449.873,301.995Z" style="fill:rgb(147,181,223);fill-rule:nonzero;"/>
            <path d="M449.873,311.599L445.471,311.599L446.499,309.348L449.873,309.348L449.873,311.599Z" style="fill:rgb(233,234,240);fill-rule:nonzero;"/>
            <path d="M637.117,443.33L565.099,443.33C562.19,443.33 559.811,440.95 559.811,438.042C559.811,435.133 562.19,432.754 565.099,432.754L637.117,432.754C640.025,432.754 642.405,435.133 642.405,438.042C642.405,440.95 640.025,443.33 637.117,443.33Z" style="fill:rgb(222,222,221);fill-rule:nonzero;"/>
            <rect x="600.951" y="436.259" width="10.285" height="3.085" style="fill:rgb(19,22,67);fill-rule:nonzero;"/>
            <rect x="590.409" y="436.259" width="7.456" height="3.085" style="fill:rgb(19,22,67);fill-rule:nonzero;"/>
            <path d="M535.775,400.494L535.775,443.579L499.782,443.579L499.782,400.494C499.782,398.597 501.327,397.053 503.224,397.053L532.333,397.053C534.23,397.053 535.775,398.597 535.775,400.494Z" style="fill:rgb(240,82,70);fill-rule:nonzero;"/>
            <path d="M500.226,436.206C499.756,435.937 488.708,429.465 487.722,418.13C487.346,413.808 488.981,411.13 490.419,409.645C494.374,405.561 500.946,405.796 501.682,405.835L501.395,411.094C500.06,411.032 496.131,411.304 494.193,413.32C493.204,414.348 492.804,415.772 492.969,417.674C493.719,426.299 502.759,431.587 502.85,431.639L500.226,436.206Z" style="fill:rgb(235,84,68);fill-rule:nonzero;"/>
            <path d="M518.955,443.579L499.782,443.579L499.782,400.494C499.782,398.597 501.327,397.053 503.224,397.053L504.383,397.053C504.435,399.301 505.05,416.488 509.878,428.867C514.073,439.646 517.814,442.824 518.955,443.579Z" style="fill:rgb(235,84,68);fill-rule:nonzero;"/>
            <path d="M518.955,443.581L499.782,443.581L499.782,443.579L518.952,443.579C518.953,443.58 518.953,443.58 518.955,443.581Z" style="fill:rgb(198,68,70);fill-rule:nonzero;"/>
            <path d="M495.279,432.418C492.024,429.36 488.27,424.513 487.72,418.123C487.696,417.839 487.68,417.563 487.673,417.294C487.681,417.565 487.697,417.844 487.722,418.13C488.277,424.516 492.027,429.358 495.279,432.418ZM499.782,429.387C497.056,427.053 493.432,423 492.969,417.674C492.9,416.877 492.93,416.165 493.061,415.53L493.062,415.53C492.933,416.163 492.904,416.873 492.97,417.666C493.444,423.004 497.061,427.059 499.782,429.377L499.782,429.387Z" style="fill:rgb(182,53,54);fill-rule:nonzero;"/>
            <path d="M493.062,415.53L493.061,415.53C493.128,415.202 493.223,414.895 493.344,414.608C493.223,414.896 493.129,415.203 493.062,415.53Z" style="fill:rgb(201,71,75);fill-rule:nonzero;"/>
            <path d="M487.673,417.288C487.673,417.285 487.673,417.281 487.672,417.278C487.673,417.282 487.673,417.285 487.673,417.288Z" style="fill:rgb(182,53,54);fill-rule:nonzero;"/>
            <path d="M494.292,413.22C495.706,411.839 498.073,411.314 499.782,411.15L499.782,411.153C498.081,411.307 495.709,411.848 494.292,413.22ZM496.336,406.404C497.625,406.071 498.834,405.919 499.782,405.85L499.782,405.861C498.835,405.924 497.626,406.073 496.336,406.404Z" style="fill:rgb(201,71,75);fill-rule:nonzero;"/>
            <path d="M499.782,435.926C498.982,435.428 497.219,434.241 495.279,432.418C492.027,429.358 488.277,424.516 487.722,418.13C487.697,417.844 487.681,417.565 487.673,417.294L487.673,417.288C487.673,417.285 487.673,417.282 487.672,417.278C487.569,413.452 489.081,411.035 490.424,409.643C492.134,407.88 494.332,406.923 496.336,406.404C497.626,406.073 498.835,405.924 499.782,405.861L499.782,411.15C498.073,411.314 495.706,411.839 494.292,413.22C494.26,413.25 494.23,413.281 494.199,413.312C493.833,413.691 493.549,414.122 493.344,414.608C493.223,414.895 493.128,415.202 493.061,415.53C492.93,416.165 492.9,416.877 492.969,417.674C493.432,423 497.056,427.053 499.782,429.387L499.782,435.926Z" style="fill:rgb(213,54,46);fill-rule:nonzero;"/>
            <path d="M518.952,443.579L499.782,443.579L499.782,400.495C499.782,398.599 501.327,397.054 503.223,397.054L504.382,397.054C504.435,399.302 505.049,416.49 509.877,428.868C514.07,439.641 517.807,442.822 518.952,443.579Z" style="fill:rgb(213,54,46);fill-rule:nonzero;"/>
            <path d="M119.13,419.817L115.053,419.095L125.011,362.833L129.088,363.555L119.13,419.817Z" style="fill:rgb(96,118,177);fill-rule:nonzero;"/>
            <path d="M127.569,379.264L121.25,378.146L124.244,361.226L130.563,362.345L127.569,379.264Z" style="fill:rgb(96,118,177);fill-rule:nonzero;"/>
            <path d="M112.333,427L108.208,426.654L112.982,369.718L115.479,366.076L117.108,370.064L112.333,427Z" style="fill:rgb(121,65,97);fill-rule:nonzero;"/>
            <path d="M106.599,429.909L102.535,430.701L91.616,374.618L93.025,370.433L95.68,373.826L106.599,429.909Z" style="fill:rgb(26,43,88);fill-rule:nonzero;"/>
            <path d="M115.736,442.955L98.04,442.955L92.238,396.109L121.538,396.109L115.736,442.955Z" style="fill:rgb(244,135,94);fill-rule:nonzero;"/>
            <path d="M122.408,442.955L104.712,442.955L102.101,396.109L128.21,396.109L122.408,442.955Z" style="fill:rgb(253,189,98);fill-rule:nonzero;"/>
            <path d="M668.693,513.552L668.693,539.333L758.726,539.333C764.315,539.333 769.09,535.763 770.875,530.777C771.354,529.427 771.623,527.965 771.623,526.437C771.623,522.889 770.183,519.665 767.852,517.323C765.509,514.992 762.285,513.552 758.726,513.552L668.693,513.552Z" style="fill:rgb(239,71,71);fill-rule:nonzero;"/>
            <path d="M758.726,539.333L688.847,539.333L688.847,530.777L770.875,530.777C769.09,535.763 764.315,539.333 758.726,539.333Z" style="fill:rgb(215,51,46);fill-rule:nonzero;"/>
            <path d="M649.445,513.547L649.444,539.336L708.475,539.336C715.593,539.336 721.369,533.559 721.369,526.441C721.369,522.89 719.925,519.664 717.597,517.32C715.254,514.992 712.027,513.547 708.475,513.547L649.445,513.547Z" style="fill:rgb(159,41,60);fill-rule:nonzero;"/>
            <path d="M649.445,517.969L649.444,534.502L704.998,534.502C709.566,534.502 713.264,530.803 713.264,526.235C713.264,523.951 712.336,521.888 710.847,520.385C709.344,518.896 707.281,517.969 704.998,517.969L649.445,517.969Z" style="fill:white;fill-rule:nonzero;"/>
            <path d="M666.952,462.302L666.952,488.091L756.984,488.09C764.102,488.09 769.878,482.314 769.878,475.196C769.878,471.644 768.434,468.417 766.106,466.074C763.763,463.746 760.536,462.302 756.984,462.302L666.952,462.302Z" style="fill:rgb(251,175,62);fill-rule:nonzero;"/>
            <path d="M687.359,470.91L687.359,462.354L757.239,462.354C762.828,462.354 767.603,465.924 769.387,470.91L687.359,470.91Z" style="fill:rgb(253,216,44);fill-rule:nonzero;"/>
            <path d="M649.445,462.302L649.445,488.091L708.475,488.09C715.593,488.09 721.369,482.314 721.369,475.196C721.369,471.644 719.925,468.417 717.597,466.074C715.254,463.746 712.027,462.302 708.475,462.302L649.445,462.302Z" style="fill:rgb(243,129,84);fill-rule:nonzero;"/>
            <path d="M649.445,466.723L649.445,483.257L704.998,483.256C709.566,483.256 713.264,479.558 713.264,474.99C713.264,472.706 712.336,470.643 710.847,469.14C709.344,467.651 707.281,466.723 704.998,466.723L649.445,466.723Z" style="fill:white;fill-rule:nonzero;"/>
            <path d="M662.301,488.239L662.301,514.032L752.334,514.032C759.451,514.032 765.219,508.253 765.219,501.135C765.219,498.949 764.672,496.885 763.713,495.078C763.11,493.951 762.341,492.914 761.448,492.01C759.105,489.678 755.881,488.239 752.334,488.239L662.301,488.239Z" style="fill:rgb(161,204,58);fill-rule:nonzero;"/>
            <path d="M664.683,488.239L664.683,495.078L763.713,495.078C763.11,493.951 762.341,492.914 761.448,492.01C759.105,489.678 755.881,488.239 752.334,488.239L664.683,488.239Z" style="fill:rgb(112,156,64);fill-rule:nonzero;"/>
            <path d="M664.683,514.044L664.683,507.204L763.713,507.204C763.11,508.331 762.341,509.368 761.448,510.272C759.105,512.604 755.881,514.044 752.334,514.044L664.683,514.044Z" style="fill:rgb(112,156,64);fill-rule:nonzero;"/>
            <path d="M638.737,488.24L638.737,514.028L692.767,514.028C699.884,514.028 705.661,508.251 705.661,501.134C705.661,497.582 704.217,494.355 701.888,492.012C699.545,489.683 696.318,488.239 692.767,488.239L638.737,488.24Z" style="fill:rgb(76,132,61);fill-rule:nonzero;"/>
            <path d="M638.737,492.661L638.737,509.194L689.289,509.194C693.857,509.194 697.556,505.496 697.556,500.927C697.556,498.643 696.627,496.58 695.139,495.077C693.636,493.588 691.573,492.66 689.289,492.66L638.737,492.661Z" style="fill:white;fill-rule:nonzero;"/>
            <path d="M676.189,336.831C671.882,332.237 672.255,325.148 677.023,320.997L677.563,320.527C682.33,316.377 689.688,316.736 693.995,321.33L693.995,321.331C698.303,325.925 697.93,333.013 693.162,337.164L692.622,337.634C687.854,341.784 680.497,341.425 676.189,336.831Z" style="fill:rgb(19,22,67);fill-rule:nonzero;"/>
            <path d="M685.338,359.126L674.007,368.99L641.833,334.677L653.164,324.813C661.015,317.979 672.276,317.071 681.016,321.814C683.224,323.008 685.265,324.558 687.057,326.469C691.495,331.203 693.526,337.225 693.223,343.141C692.903,349.056 690.251,354.85 685.338,359.126Z" style="fill:rgb(223,125,84);fill-rule:nonzero;"/>
            <path d="M675.101,348.208L663.77,358.072L641.833,334.677L653.164,324.813C661.015,317.979 672.276,317.071 681.016,321.814C682.517,325.124 683.171,328.69 682.985,332.223C682.667,338.138 680.014,343.932 675.101,348.208Z" style="fill:rgb(255,197,67);fill-rule:nonzero;"/>
            <path d="M674.594,368.858C671.176,371.91 661.074,366.811 652.032,357.448C642.989,348.084 638.418,338.016 641.842,334.955C644.538,332.535 651.42,335.219 658.659,341.078C660.565,342.634 662.509,344.404 664.395,346.36C666.6,348.646 668.543,350.972 670.164,353.23C675.199,360.219 677.177,366.546 674.594,368.858Z" style="fill:rgb(162,159,176);fill-rule:nonzero;"/>
            <path d="M670.164,353.23C667.545,356.114 663.092,356.937 659.483,354.973C655.361,352.729 653.902,347.674 656.236,343.694C656.858,342.633 657.691,341.746 658.659,341.078C660.565,342.634 662.509,344.404 664.395,346.36C666.6,348.646 668.543,350.972 670.164,353.23Z" style="fill:white;fill-rule:nonzero;"/>
            <path d="M733.414,447.792L762.786,352.983L703.307,313.362L690.824,323.975" style="fill:none;stroke:rgb(19,22,67);stroke-width:4.59px;"/>
            <path d="M709.838,313.926C709.838,317.817 706.564,320.972 702.525,320.972C698.486,320.972 695.212,317.817 695.212,313.926C695.212,310.034 698.486,306.879 702.525,306.879C706.564,306.879 709.838,310.034 709.838,313.926Z" style="fill:rgb(19,22,67);fill-rule:nonzero;"/>
            <path d="M706.182,313.926C706.182,315.871 704.544,317.449 702.525,317.449C700.505,317.449 698.869,315.871 698.869,313.926C698.869,311.98 700.505,310.402 702.525,310.402C704.544,310.402 706.182,311.98 706.182,313.926Z" style="fill:rgb(48,61,111);fill-rule:nonzero;"/>
            <path d="M762.98,462.616L687.313,462.616C687.313,454.313 694.044,447.583 702.346,447.583L747.948,447.583C756.25,447.583 762.98,454.313 762.98,462.616Z" style="fill:rgb(48,61,111);fill-rule:nonzero;"/>
            <rect x="702.915" y="443.825" width="13.651" height="4.134" style="fill:rgb(19,22,67);fill-rule:nonzero;"/>
            <path d="M772.439,353.95C772.439,359.398 767.855,363.815 762.2,363.815C756.546,363.815 751.962,359.398 751.962,353.95C751.962,348.501 756.546,344.085 762.2,344.085C767.855,344.085 772.439,348.501 772.439,353.95Z" style="fill:rgb(19,22,67);fill-rule:nonzero;"/>
            <path d="M767.319,353.95C767.319,356.674 765.028,358.883 762.2,358.883C759.373,358.883 757.081,356.674 757.081,353.95C757.081,351.226 759.373,349.017 762.2,349.017C765.028,349.017 767.319,351.226 767.319,353.95Z" style="fill:rgb(48,61,111);fill-rule:nonzero;"/>
            <path d="M827.902,468.212C816.804,483.325 794.54,485.833 794.54,485.833C794.54,485.833 790.27,463.839 801.367,448.727C812.465,433.614 834.729,431.105 834.729,431.105C834.729,431.105 839,453.1 827.902,468.212Z" style="fill:rgb(81,127,58);fill-rule:nonzero;"/>
            <path d="M781.301,459.175C791.474,469.202 790.919,486.261 790.919,486.261C790.919,486.261 773.869,487.064 763.696,477.038C753.522,467.011 754.077,449.951 754.077,449.951C754.077,449.951 771.127,449.148 781.301,459.175Z" style="fill:rgb(59,104,55);fill-rule:nonzero;"/>
            <path d="M806.515,451.59C808.582,470.226 793.897,487.147 793.897,487.147C793.897,487.147 775.862,473.855 773.795,455.219C771.728,436.583 786.413,419.662 786.413,419.662C786.413,419.662 804.448,432.955 806.515,451.59Z" style="fill:rgb(99,177,91);fill-rule:nonzero;"/>
            <path d="M805.138,538.635L766.52,538.635L753.858,482.29L817.8,482.29L805.138,538.635Z" style="fill:rgb(98,50,74);fill-rule:nonzero;"/>
            <path d="M819.7,538.635L781.081,538.635L775.383,482.29L832.361,482.29L819.7,538.635Z" style="fill:rgb(161,82,58);fill-rule:nonzero;"/>
        </g>
    </g>
</svg>
